<svg width="61" height="61" viewBox="0 0 61 61" fill="none" xmlns="http://www.w3.org/2000/svg">
<path d="M35.5833 5.08334L50.8333 20.3333V50.8333C50.8333 52.1815 50.2977 53.4745 49.3444 54.4278C48.3911 55.3811 47.0981 55.9167 45.75 55.9167H15.25C13.9018 55.9167 12.6088 55.3811 11.6555 54.4278C10.7022 53.4745 10.1666 52.1815 10.1666 50.8333V10.1667C10.1666 8.81849 10.7022 7.52553 11.6555 6.57222C12.6088 5.61891 13.9018 5.08334 15.25 5.08334H35.5833ZM45.75 50.8333V22.875H33.0416V10.1667H15.25V50.8333H45.75ZM29.2291 25.4167C35.5833 25.4167 40.6666 30.5 40.6666 36.8542C40.6666 43.2083 35.5833 48.2917 29.2291 48.2917C22.875 48.2917 17.7916 43.2083 17.7916 36.8542C17.7916 30.5 22.875 25.4167 29.2291 25.4167ZM29.2291 29.2292C27.8058 29.2292 26.4841 29.6104 25.4166 30.2967L35.7866 40.6667C36.4729 39.5992 36.8541 38.2775 36.8541 36.8542C36.8541 34.8319 36.0508 32.8925 34.6208 31.4625C33.1909 30.0325 31.2514 29.2292 29.2291 29.2292ZM21.6041 36.8542C21.6041 38.8765 22.4075 40.8159 23.8374 42.2459C25.2674 43.6758 27.2069 44.4792 29.2291 44.4792C30.6525 44.4792 31.9741 44.0979 33.0416 43.4117L22.6716 33.0417C21.9854 34.1092 21.6041 35.4308 21.6041 36.8542Z" fill="white"/>
</svg>
