<svg width="61" height="62" viewBox="0 0 61 62" fill="none" xmlns="http://www.w3.org/2000/svg">
<path d="M55.0906 37.7731L51.1887 34.4372C51.3734 33.3054 51.4687 32.1497 51.4687 30.994C51.4687 29.8384 51.3734 28.6827 51.1887 27.5509L55.0906 24.2149C55.3849 23.963 55.5955 23.6274 55.6945 23.2529C55.7934 22.8783 55.776 22.4825 55.6446 22.1181L55.591 21.9632C54.5168 18.961 52.9083 16.1779 50.8432 13.7484L50.736 13.6233C50.4855 13.3288 50.1516 13.117 49.7783 13.016C49.4051 12.915 49.01 12.9294 48.6451 13.0574L43.802 14.779C42.0149 13.3136 40.0193 12.1579 37.8629 11.3477L36.9276 6.28427C36.857 5.90327 36.6722 5.55276 36.3977 5.27931C36.1232 5.00585 35.772 4.8224 35.3907 4.75331L35.2298 4.72353C32.1262 4.16357 28.8618 4.16357 25.7582 4.72353L25.5973 4.75331C25.2161 4.8224 24.8648 5.00585 24.5903 5.27931C24.3158 5.55276 24.131 5.90327 24.0604 6.28427L23.1192 11.3716C20.98 12.1819 18.9878 13.337 17.2217 14.7909L12.3429 13.0574C11.9782 12.9284 11.5828 12.9134 11.2093 13.0145C10.8358 13.1156 10.5019 13.3279 10.252 13.6233L10.1448 13.7484C8.08214 16.1796 6.47392 18.9622 5.39703 21.9632L5.34342 22.1181C5.07535 22.8627 5.29576 23.6967 5.89742 24.2149L9.84694 27.5866C9.66227 28.7065 9.57291 29.8503 9.57291 30.9881C9.57291 32.1318 9.66227 33.2756 9.84694 34.3895L5.89742 37.7612C5.60312 38.0132 5.39249 38.3487 5.29352 38.7233C5.19456 39.0979 5.21197 39.4937 5.34342 39.8581L5.39703 40.013C6.47526 43.0153 8.07174 45.7853 10.1448 48.2277L10.252 48.3528C10.5025 48.6474 10.8364 48.8591 11.2097 48.9602C11.5829 49.0612 11.978 49.0467 12.3429 48.9187L17.2217 47.1852C18.9969 48.6447 20.9806 49.8004 23.1192 50.6046L24.0604 55.6919C24.131 56.0729 24.3158 56.4234 24.5903 56.6969C24.8648 56.9703 25.2161 57.1538 25.5973 57.2228L25.7582 57.2526C28.8903 57.8156 32.0977 57.8156 35.2298 57.2526L35.3907 57.2228C35.772 57.1538 36.1232 56.9703 36.3977 56.6969C36.6722 56.4234 36.857 56.0729 36.9276 55.6919L37.8629 50.6284C40.0184 49.8204 42.0253 48.6609 43.802 47.1972L48.6451 48.9187C49.0099 49.0478 49.4053 49.0627 49.7787 48.9616C50.1522 48.8606 50.4861 48.6482 50.736 48.3528L50.8432 48.2277C52.9163 45.7794 54.5128 43.0153 55.591 40.013L55.6446 39.8581C55.9127 39.1254 55.6922 38.2914 55.0906 37.7731ZM46.9592 28.2538C47.1082 29.1533 47.1856 30.0767 47.1856 31C47.1856 31.9233 47.1082 32.8467 46.9592 33.7462L46.5661 36.135L51.016 39.9415C50.3414 41.4956 49.4899 42.9668 48.4783 44.3259L42.9502 42.366L41.0796 43.9029C39.6559 45.0705 38.0714 45.9879 36.3557 46.6312L34.0861 47.4831L33.0198 53.2614C31.3373 53.452 29.6388 53.452 27.9563 53.2614L26.89 47.4712L24.6382 46.6074C22.9405 45.9641 21.3619 45.0467 19.9501 43.8851L18.0796 42.3422L12.5157 44.3199C11.503 42.9558 10.6571 41.4844 9.97799 39.9355L14.4755 36.0933L14.0883 33.7104C13.9454 32.8228 13.8679 31.9055 13.8679 31C13.8679 30.0886 13.9394 29.1771 14.0883 28.2895L14.4755 25.9067L9.97799 22.0644C10.6511 20.5097 11.503 19.0442 12.5157 17.6801L18.0796 19.6578L19.9501 18.1149C21.3619 16.9533 22.9405 16.0359 24.6382 15.3926L26.896 14.5407L27.9623 8.75048C29.6362 8.55986 31.3459 8.55986 33.0257 8.75048L34.0921 14.5288L36.3617 15.3807C38.0714 16.024 39.6619 16.9414 41.0856 18.109L42.9561 19.6459L48.4842 17.686C49.4969 19.0502 50.3428 20.5216 51.0219 22.0704L46.572 25.8769L46.9592 28.2538ZM30.5 19.9199C24.7097 19.9199 20.0156 24.6141 20.0156 30.4043C20.0156 36.1945 24.7097 40.8887 30.5 40.8887C36.2902 40.8887 40.9843 36.1945 40.9843 30.4043C40.9843 24.6141 36.2902 19.9199 30.5 19.9199ZM35.2179 35.1223C34.5991 35.7428 33.8637 36.235 33.054 36.5703C32.2443 36.9056 31.3763 37.0775 30.5 37.0762C28.7188 37.0762 27.0449 36.3792 25.782 35.1223C25.1614 34.5035 24.6693 33.7681 24.334 32.9584C23.9986 32.1487 23.8267 31.2807 23.8281 30.4043C23.8281 28.6231 24.5251 26.9492 25.782 25.6863C27.0449 24.4234 28.7188 23.7324 30.5 23.7324C32.2811 23.7324 33.955 24.4234 35.2179 25.6863C35.8385 26.3051 36.3306 27.0405 36.666 27.8502C37.0013 28.6599 37.1732 29.5279 37.1718 30.4043C37.1718 32.1854 36.4749 33.8594 35.2179 35.1223Z" fill="white"/>
</svg>
