<svg width="59" height="62" viewBox="0 0 59 62" fill="none" xmlns="http://www.w3.org/2000/svg">
<path d="M29.5 56.4167H12.5833C11.9424 56.4167 11.3277 56.1489 10.8745 55.6722C10.4212 55.1956 10.1666 54.5491 10.1666 53.875V8.12501C10.1666 7.45092 10.4212 6.80444 10.8745 6.32778C11.3277 5.85113 11.9424 5.58334 12.5833 5.58334H46.4166C47.0576 5.58334 47.6723 5.85113 48.1255 6.32778C48.5787 6.80444 48.8333 7.45092 48.8333 8.12501V31M43.3958 56.4167V39.8958" stroke="white" stroke-width="5.08333" stroke-linecap="round" stroke-linejoin="round"/>
<path d="M37.9583 44.3438L39.7708 42.4375L43.3958 38.625L47.0208 42.4375L48.8333 44.3438" stroke="white" stroke-width="5.08333" stroke-linecap="round" stroke-linejoin="round"/>
<path d="M19.8333 20.8334H39.1666M19.8333 31H29.4999" stroke="white" stroke-width="5.08333" stroke-linecap="round"/>
</svg>
