<svg width="61" height="61" viewBox="0 0 61 61" fill="none" xmlns="http://www.w3.org/2000/svg">
<path d="M50.8333 12.7083H22.875C20.0792 12.7083 17.7917 14.9958 17.7917 17.7916V53.375L27.9583 43.2083H50.8333C53.6292 43.2083 55.9167 40.9208 55.9167 38.125V17.7916C55.9167 14.9958 53.6292 12.7083 50.8333 12.7083ZM50.8333 38.125H25.925L22.875 41.175V17.7916H50.8333V38.125ZM7.625 17.7916C6.1 17.7916 5.08333 18.8083 5.08333 20.3333C5.08333 21.8583 6.1 22.875 7.625 22.875H12.7083V17.7916H7.625ZM5.08333 27.9583C3.55833 27.9583 2.54167 28.975 2.54167 30.5C2.54167 32.025 3.55833 33.0416 5.08333 33.0416H12.7083V27.9583H5.08333ZM2.54167 38.125C1.01667 38.125 0 39.1416 0 40.6666C0 42.1916 1.01667 43.2083 2.54167 43.2083H12.7083V38.125H2.54167Z" fill="white"/>
</svg>
