<svg width="61" height="61" viewBox="0 0 61 61" fill="none" xmlns="http://www.w3.org/2000/svg">
<path d="M56.8634 7.94908C56.1553 7.24084 55.3147 6.67904 54.3894 6.29573C53.4642 5.91243 52.4725 5.71515 51.4711 5.71515C50.4696 5.71515 49.4779 5.91243 48.5527 6.29573C47.6275 6.67904 46.7868 7.24084 46.0788 7.94908C45.3705 8.65715 44.8087 9.4978 44.4254 10.423C44.0421 11.3482 43.8448 12.3399 43.8448 13.3414C43.8448 14.3429 44.0421 15.3345 44.4254 16.2597C44.8087 17.185 45.3705 18.0256 46.0788 18.7337C46.1479 18.8028 46.2217 18.8695 46.2932 18.9362L39.9478 30.7216C38.0132 30.2498 35.971 30.5489 34.2529 31.5556L29.4444 26.7471C30.3904 25.1482 30.7201 23.2589 30.3716 21.434C30.0231 19.6092 29.0203 17.9744 27.5517 16.8366C26.083 15.6988 24.2495 15.1364 22.3955 15.2549C20.5414 15.3735 18.7945 16.1648 17.4826 17.4803C16.7744 18.1884 16.2126 19.029 15.8293 19.9543C15.446 20.8795 15.2487 21.8712 15.2487 22.8726C15.2487 23.8741 15.446 24.8658 15.8293 25.791C16.2126 26.7162 16.7744 27.5569 17.4826 28.2649C17.5517 28.334 17.6232 28.4008 17.6947 28.4675L11.3493 40.2552C10.0756 39.9418 8.74255 39.9621 7.47903 40.3144C6.21551 40.6667 5.06424 41.339 4.13651 42.2663C3.07031 43.3328 2.34427 44.6914 2.0502 46.1705C1.75613 47.6496 1.90723 49.1826 2.4844 50.5758C3.06157 51.969 4.03888 53.1597 5.29277 53.9975C6.54666 54.8353 8.0208 55.2824 9.52881 55.2824C11.0368 55.2824 12.511 54.8353 13.7649 53.9975C15.0187 53.1597 15.9961 51.969 16.5732 50.5758C17.1504 49.1826 17.3015 47.6496 17.0074 46.1705C16.7134 44.6914 15.9873 43.3328 14.9211 42.2663C14.852 42.1972 14.7781 42.1305 14.7067 42.0638L21.0521 30.2784C21.6487 30.4245 22.2607 30.4989 22.8749 30.5C24.2363 30.5017 25.5733 30.1388 26.747 29.4492L31.5555 34.2577C30.8316 35.4863 30.4667 36.8933 30.5023 38.3189C30.5379 39.7444 30.9725 41.1314 31.7569 42.3224C32.5412 43.5133 33.6438 44.4605 34.9394 45.0562C36.235 45.652 37.6717 45.8725 39.0863 45.6927C40.5009 45.5129 41.8368 44.94 42.9422 44.0391C44.0476 43.1382 44.8782 41.9454 45.3396 40.5961C45.8011 39.2468 45.875 37.7952 45.5528 36.4061C45.2307 35.0169 44.5255 33.7459 43.5173 32.7375C43.4481 32.6684 43.3767 32.6017 43.3052 32.5349L49.6506 20.7495C50.2458 20.8946 50.8561 20.9682 51.4687 20.9688C52.9765 20.9685 54.4503 20.5213 55.704 19.6836C56.9576 18.8459 57.9347 17.6553 58.5119 16.2623C59.089 14.8694 59.2402 13.3366 58.9463 11.8578C58.6525 10.3789 57.9268 9.02035 56.861 7.95384L56.8634 7.94908ZM12.2238 50.356C11.5084 51.0711 10.5383 51.4727 9.52678 51.4724C8.5153 51.4722 7.54534 51.0702 6.83028 50.3548C6.11521 49.6394 5.71362 48.6693 5.71384 47.6578C5.71407 46.6463 6.11609 45.6764 6.83147 44.9613C7.18569 44.6072 7.60618 44.3264 8.06893 44.1349C8.53168 43.9433 9.02763 43.8448 9.52846 43.8449C10.0293 43.845 10.5252 43.9437 10.9879 44.1355C11.4505 44.3273 11.8709 44.6083 12.225 44.9625C12.579 45.3167 12.8599 45.7372 13.0514 46.2C13.243 46.6627 13.3415 47.1587 13.3414 47.6595C13.3413 48.1603 13.2425 48.6562 13.0508 49.1189C12.859 49.5816 12.578 50.0019 12.2238 50.356ZM20.1776 25.5747C19.8235 25.2207 19.5426 24.8004 19.3509 24.3378C19.1593 23.8752 19.0606 23.3793 19.0606 22.8786C19.0606 22.3778 19.1593 21.882 19.3509 21.4194C19.5426 20.9568 19.8235 20.5365 20.1776 20.1824C20.7108 19.6493 21.3901 19.2863 22.1297 19.1393C22.8692 18.9922 23.6357 19.0678 24.3323 19.3564C25.0289 19.645 25.6243 20.1336 26.0432 20.7606C26.4621 21.3875 26.6856 22.1246 26.6856 22.8786C26.6856 23.6326 26.4621 24.3697 26.0432 24.9966C25.6243 25.6236 25.0289 26.1122 24.3323 26.4008C23.6357 26.6894 22.8692 26.7649 22.1297 26.6179C21.3901 26.4709 20.7108 26.1078 20.1776 25.5747ZM40.8223 40.8247C40.1072 41.5398 39.1374 41.9415 38.1261 41.9415C37.1149 41.9415 36.145 41.5398 35.43 40.8247C34.7149 40.1097 34.3132 39.1398 34.3132 38.1286C34.3132 37.1173 34.7149 36.1475 35.43 35.4324C36.145 34.7174 37.1149 34.3157 38.1261 34.3157C39.1374 34.3157 40.1072 34.7174 40.8223 35.4324C41.5374 36.1475 41.9391 37.1173 41.9391 38.1286C41.9391 39.1398 41.5374 40.1097 40.8223 40.8247ZM54.166 16.0435C53.8115 16.3974 53.3907 16.678 52.9278 16.8693C52.4648 17.0606 51.9687 17.1588 51.4677 17.1584C50.9668 17.1579 50.4708 17.0588 50.0082 16.8667C49.5455 16.6746 49.1253 16.3933 48.7713 16.0387C48.4174 15.6842 48.1368 15.2634 47.9455 14.8004C47.7542 14.3375 47.656 13.8413 47.6565 13.3404C47.6569 12.8395 47.756 12.3435 47.9481 11.8809C48.1402 11.4182 48.4216 10.9979 48.7761 10.644C49.1303 10.29 49.5508 10.0091 50.0136 9.81759C50.4763 9.62603 50.9723 9.52749 51.4731 9.5276C51.9739 9.52771 52.4698 9.62647 52.9325 9.81823C53.3952 10.01 53.8155 10.291 54.1696 10.6452C54.5237 10.9994 54.8045 11.4199 54.9961 11.8827C55.1876 12.3454 55.2862 12.8414 55.286 13.3422C55.2859 13.8431 55.1872 14.339 54.9954 14.8016C54.8037 15.2643 54.5226 15.6847 54.1684 16.0387L54.166 16.0435Z" fill="white"/>
</svg>
