<svg width="61" height="62" viewBox="0 0 61 62" fill="none" xmlns="http://www.w3.org/2000/svg">
<path d="M55.8483 50.5391C52.5814 44.8053 47.4801 40.3377 41.3656 37.8554C44.4063 35.5749 46.6523 32.3954 47.7856 28.7675C48.9189 25.1395 48.882 21.247 47.68 17.6412C46.4781 14.0354 44.1721 10.8992 41.0887 8.67677C38.0053 6.45438 34.3008 5.25848 30.5 5.25848C26.6991 5.25848 22.9946 6.45438 19.9112 8.67677C16.8278 10.8992 14.5218 14.0354 13.3199 17.6412C12.118 21.247 12.081 25.1395 13.2143 28.7675C14.3476 32.3954 16.5937 35.5749 19.6343 37.8554C13.5199 40.3377 8.41854 44.8053 5.1516 50.5391C4.94917 50.8646 4.81425 51.2275 4.75486 51.6061C4.69548 51.9848 4.71283 52.3716 4.80591 52.7434C4.89898 53.1153 5.06586 53.4646 5.29664 53.7706C5.52741 54.0767 5.81737 54.3332 6.14927 54.525C6.48117 54.7168 6.84824 54.8398 7.22865 54.8869C7.60906 54.9339 7.99505 54.904 8.36368 54.7989C8.7323 54.6938 9.07603 54.5157 9.37443 54.2751C9.67284 54.0345 9.91982 53.7364 10.1007 53.3984C14.4184 45.9355 22.0434 41.4844 30.5 41.4844C38.9566 41.4844 46.5816 45.9379 50.8992 53.3984C51.2912 54.0288 51.913 54.482 52.6331 54.6622C53.3531 54.8424 54.1151 54.7356 54.7578 54.3642C55.4005 53.9929 55.8736 53.3862 56.0771 52.6723C56.2806 51.9585 56.1986 51.1935 55.8483 50.5391ZM18.1093 23.375C18.1093 20.9244 18.836 18.5288 20.1975 16.4911C21.559 14.4535 23.4942 12.8654 25.7583 11.9276C28.0224 10.9897 30.5137 10.7444 32.9173 11.2225C35.3208 11.7006 37.5286 12.8807 39.2615 14.6135C40.9943 16.3464 42.1744 18.5542 42.6525 20.9577C43.1306 23.3613 42.8852 25.8526 41.9474 28.1167C41.0096 30.3808 39.4215 32.3159 37.3838 33.6774C35.3462 35.0389 32.9506 35.7656 30.5 35.7656C27.2149 35.7619 24.0655 34.4552 21.7426 32.1323C19.4198 29.8095 18.1131 26.66 18.1093 23.375Z" fill="white"/>
</svg>
