<svg width="61" height="62" viewBox="0 0 61 62" fill="none" xmlns="http://www.w3.org/2000/svg">
<path d="M17.7917 18.0833V43.5M10.1667 20.625V40.9583M25.4167 18.0833C25.4167 16.7351 25.9523 15.4422 26.9056 14.4889C27.8589 13.5356 29.1519 13 30.5001 13H45.7501C47.0983 13 48.3912 13.5356 49.3445 14.4889C50.2979 15.4422 50.8334 16.7351 50.8334 18.0833V43.5C50.8334 44.8482 50.2979 46.1411 49.3445 47.0945C48.3912 48.0478 47.0983 48.5833 45.7501 48.5833H30.5001C29.1519 48.5833 27.8589 48.0478 26.9056 47.0945C25.9523 46.1411 25.4167 44.8482 25.4167 43.5V18.0833Z" stroke="white" stroke-width="5.08333" stroke-linecap="round" stroke-linejoin="round"/>
</svg>
