<svg width="232" height="233" viewBox="0 0 232 233" fill="none" xmlns="http://www.w3.org/2000/svg">
<path opacity="0.1" d="M116.502 232.999C180.843 232.999 233.002 180.84 233.002 116.499C233.002 52.1585 180.843 0 116.502 0C52.1608 0 0.00195312 52.1585 0.00195312 116.499C0.00195312 180.84 52.1608 232.999 116.502 232.999Z" fill="#367CFF"/>
<path d="M66.0982 81.5543C66.5194 81.0821 67.0295 80.6974 67.5993 80.4223C68.1692 80.1472 68.7876 79.987 69.4194 79.9509C70.0511 79.9148 70.6838 80.0035 71.2813 80.2119C71.8787 80.4203 72.4293 80.7444 72.9015 81.1656L88.2793 94.881L81.8644 102.073L66.4867 88.3579C66.0144 87.9367 65.6297 87.4266 65.3546 86.8567C65.0795 86.2868 64.9193 85.6683 64.8833 85.0365C64.8472 84.4048 64.9359 83.7721 65.1444 83.1746C65.3528 82.5771 65.6769 82.0265 66.0982 81.5543Z" fill="white"/>
<path d="M81.9013 102.745L66.1696 88.7127C65.6507 88.2499 65.2281 87.6895 64.9258 87.0633C64.6235 86.4372 64.4475 85.7577 64.4078 85.0635C64.3681 84.3694 64.4656 83.6742 64.6945 83.0177C64.9235 82.3613 65.2796 81.7563 65.7424 81.2374C66.2052 80.7185 66.7656 80.2959 67.3917 79.9936C68.0179 79.6913 68.6974 79.5153 69.3915 79.4756C70.0857 79.4359 70.7809 79.5334 71.4374 79.7624C72.0938 79.9913 72.6988 80.3474 73.2177 80.8102L88.9512 94.8424L81.9013 102.745ZM69.6979 80.4184C69.6137 80.4184 69.5292 80.4208 69.4445 80.4255C68.587 80.4747 67.7633 80.7771 67.0777 81.2944C66.392 81.8117 65.8751 82.5207 65.5923 83.3318C65.3096 84.1429 65.2737 85.0196 65.4892 85.851C65.7047 86.6825 66.1619 87.4314 66.803 88.003L81.8257 101.402L87.607 94.9201L72.5843 81.5213C71.7919 80.81 70.7642 80.4171 69.6993 80.4184H69.6979Z" fill="#292A2E"/>
<path d="M151.136 102.074L144.722 94.8824L160.099 81.1669C161.053 80.3163 162.306 79.8794 163.582 79.9523C164.857 80.0252 166.052 80.6019 166.903 81.5556C167.753 82.5094 168.19 83.7619 168.117 85.0378C168.044 86.3137 167.468 87.5083 166.514 88.359L151.136 102.074Z" fill="white"/>
<path d="M151.1 102.745L144.052 94.8424L159.785 80.8102C160.833 79.8755 162.209 79.3955 163.611 79.4756C165.013 79.5557 166.326 80.1895 167.26 81.2374C168.195 82.2854 168.675 83.6617 168.595 85.0635C168.515 86.4654 167.881 87.7781 166.833 88.7127L151.1 102.745ZM145.396 94.9194L151.177 101.401L166.2 88.003C166.625 87.6234 166.972 87.1637 167.22 86.6501C167.468 86.1365 167.612 85.5792 167.645 85.0098C167.677 84.4404 167.597 83.8703 167.41 83.3318C167.222 82.7933 166.93 82.2971 166.55 81.8715C166.17 81.4459 165.711 81.0993 165.197 80.8513C164.684 80.6034 164.126 80.4591 163.557 80.4265C162.987 80.394 162.417 80.474 161.879 80.6618C161.34 80.8496 160.844 81.1417 160.419 81.5213L145.396 94.9194Z" fill="#292A2E"/>
<path d="M157.543 110.995C160.973 126.185 165.669 135.958 163.331 141.571C162.102 144.521 159.579 146.995 155.402 146.995C148.892 146.995 148.892 139.317 142.382 139.317C135.871 139.317 135.872 146.995 129.363 146.995C122.853 146.995 122.854 139.317 116.345 139.317C109.835 139.317 109.835 146.995 103.326 146.995C96.8162 146.995 96.8166 139.317 90.3075 139.317C83.7985 139.317 83.7992 146.995 77.2908 146.995C73.4265 146.995 71.242 144.719 69.8566 142.089C66.5274 135.77 74.2866 121.866 77.2908 109.606C80.6101 96.0575 80.3305 79.1822 80.7758 69.0044C81.6349 49.3769 96.7009 33.4316 116.349 33.4316C135.997 33.4316 150.491 49.4102 151.922 69.0044C152.693 79.5676 154.403 97.0901 157.543 110.995Z" fill="white"/>
<path d="M155.402 147.475C151.925 147.475 150.197 145.437 148.526 143.465C146.926 141.578 145.415 139.796 142.382 139.796C139.349 139.796 137.84 141.578 136.238 143.465C134.567 145.435 132.839 147.475 129.363 147.475C125.886 147.475 124.158 145.437 122.488 143.465C120.888 141.578 119.376 139.796 116.344 139.796C113.313 139.796 111.802 141.578 110.201 143.465C108.53 145.435 106.803 147.475 103.326 147.475C99.8484 147.475 98.1202 145.437 96.4524 143.467C94.8524 141.58 93.3414 139.798 90.3092 139.798C87.277 139.798 85.7671 141.58 84.1667 143.467C82.4964 145.438 80.769 147.477 77.2925 147.477C73.8344 147.477 71.2639 145.789 69.4336 142.315C67.1125 137.909 69.9002 130.12 72.8522 121.875C74.3181 117.779 75.833 113.545 76.8266 109.495C79.4812 98.6594 79.8173 85.9277 80.087 75.697C80.1505 73.2772 80.2108 70.9913 80.2999 68.9864C80.7257 59.2709 84.5886 50.2286 91.1786 43.5244C94.4539 40.1679 98.3697 37.503 102.694 35.6875C107.018 33.872 111.662 32.9429 116.352 32.9552C121.012 32.9442 125.625 33.8762 129.915 35.6951C134.205 37.514 138.082 40.1821 141.314 43.539C147.751 50.1672 151.69 59.2003 152.404 68.9726C153.092 78.3953 154.736 96.3702 158.015 110.893C159.127 115.819 160.372 120.169 161.47 124.008C163.763 132.024 165.42 137.816 163.777 141.758C162.884 143.893 160.613 147.475 155.402 147.475ZM142.382 138.837C145.859 138.837 147.587 140.875 149.258 142.847C150.858 144.734 152.37 146.516 155.402 146.516C160.056 146.516 162.09 143.303 162.888 141.387C164.402 137.755 162.782 132.099 160.543 124.27C159.443 120.419 158.193 116.055 157.075 111.103C153.782 96.5186 152.133 78.49 151.443 69.041C149.98 49.0147 134.893 33.9129 116.348 33.9129C97.5319 33.9129 82.1167 49.3365 81.2534 69.0268C81.1661 71.0232 81.1057 73.3049 81.0404 75.7204C80.7839 85.4547 80.4322 98.7857 77.7531 109.721C76.7492 113.819 75.2244 118.079 73.7503 122.197C70.8718 130.238 68.1529 137.835 70.2774 141.867C71.926 144.995 74.2187 146.515 77.2872 146.515C80.319 146.515 81.8293 144.733 83.4297 142.846C85.1 140.875 86.8274 138.836 90.3039 138.836C93.7804 138.836 95.5085 140.874 97.1788 142.846C98.7788 144.733 100.29 146.515 103.322 146.515C106.354 146.515 107.866 144.733 109.466 142.846C111.137 140.875 112.864 138.836 116.341 138.836C119.818 138.836 121.545 140.874 123.216 142.846C124.816 144.733 126.326 146.515 129.359 146.515C132.392 146.515 133.903 144.733 135.503 142.846C137.177 140.877 138.905 138.837 142.382 138.837Z" fill="#292A2E"/>
<path d="M102.981 71.3003C105.158 71.3003 106.924 69.5349 106.924 67.3572C106.924 65.1794 105.158 63.4141 102.981 63.4141C100.803 63.4141 99.0376 65.1794 99.0376 67.3572C99.0376 69.5349 100.803 71.3003 102.981 71.3003Z" fill="#292A2E"/>
<path d="M130.02 71.3003C132.198 71.3003 133.963 69.5349 133.963 67.3572C133.963 65.1794 132.198 63.4141 130.02 63.4141C127.843 63.4141 126.077 65.1794 126.077 67.3572C126.077 69.5349 127.843 71.3003 130.02 71.3003Z" fill="#292A2E"/>
<path d="M123.562 78C123.79 77.9994 124.015 78.0496 124.221 78.1469C124.426 78.2442 124.608 78.3861 124.752 78.5623C124.896 78.7385 124.999 78.9446 125.053 79.1657C125.107 79.3867 125.112 79.617 125.066 79.8399C124.221 83.7933 120.707 86.2783 116.501 86.2783C112.295 86.2783 108.782 83.7944 107.936 79.8399C107.891 79.617 107.895 79.3866 107.949 79.1656C108.004 78.9445 108.107 78.7384 108.251 78.5622C108.395 78.3859 108.576 78.244 108.782 78.1468C108.988 78.0495 109.213 77.9994 109.44 78H123.562Z" fill="white"/>
<path d="M116.501 86.7579C111.97 86.7579 108.339 84.0181 107.467 79.9398C107.405 79.6495 107.409 79.3489 107.478 79.0602C107.548 78.7716 107.681 78.5022 107.869 78.272C108.058 78.0372 108.297 77.8479 108.569 77.718C108.841 77.5881 109.139 77.5209 109.44 77.5215H123.563C123.865 77.521 124.162 77.5882 124.434 77.7181C124.706 77.848 124.946 78.0373 125.135 78.272C125.322 78.5023 125.455 78.7716 125.525 79.0603C125.594 79.3489 125.598 79.6495 125.536 79.9398C124.663 84.0181 121.031 86.7579 116.501 86.7579ZM109.439 78.4796C109.281 78.4794 109.125 78.5148 108.982 78.5831C108.839 78.6514 108.713 78.7509 108.614 78.8742C108.517 78.9935 108.447 79.1332 108.411 79.283C108.375 79.4327 108.373 79.5887 108.405 79.7393C109.18 83.3634 112.433 85.7984 116.5 85.7984C120.568 85.7984 123.821 83.3634 124.596 79.7393C124.628 79.5886 124.626 79.4326 124.59 79.2829C124.553 79.1332 124.484 78.9935 124.386 78.8742C124.287 78.7509 124.161 78.6514 124.019 78.5831C123.876 78.5148 123.72 78.4794 123.561 78.4796H109.439Z" fill="#292A2E"/>
<path d="M209.187 187.089C187.903 214.995 154.306 233 116.503 233C78.7006 233 45.1032 214.995 23.8191 187.089C48.1159 177.948 80.6914 172.359 116.503 172.359C152.315 172.359 184.889 177.948 209.187 187.089Z" fill="#367CFF"/>
<path d="M218.966 61.0142L159.176 60.7587C159.176 50.7732 164.801 48.8073 170.78 47.1857C176.759 45.564 179.449 34.5885 189.839 33.9639C195.975 33.5949 199.193 35.174 201.858 37.2073C201.862 37.2108 201.862 37.2144 201.865 37.2144C208.542 44.3983 214.287 52.3945 218.966 61.0142Z" fill="white"/>
<path d="M48.415 135.211L1.5318 135.413C0.730988 130.518 0.245024 125.577 0.0769043 120.62C10.3463 119.165 9.29598 111.003 21.5597 111.745C30.6581 112.291 33.0215 121.904 38.2555 123.324C43.4896 124.743 48.415 126.469 48.415 135.211Z" fill="white"/>
</svg>
