<svg width="28" height="28" viewBox="0 0 28 28" fill="none" xmlns="http://www.w3.org/2000/svg">
<path d="M10 6H7.33333C6.97971 6 6.64057 6.14048 6.39052 6.39052C6.14048 6.64057 6 6.97971 6 7.33333V22C6 22.3536 6.14048 22.6928 6.39052 22.9428C6.64057 23.1929 6.97971 23.3333 7.33333 23.3333H20.6667C21.0203 23.3333 21.3594 23.1929 21.6095 22.9428C21.8595 22.6928 22 22.3536 22 22V7.33333C22 6.97971 21.8595 6.64057 21.6095 6.39052C21.3594 6.14048 21.0203 6 20.6667 6H18" stroke="white" stroke-width="1.5" stroke-linecap="round" stroke-linejoin="round"/>
<path d="M12.668 11.3334H19.3346M12.668 15.3334H19.3346M12.668 19.3334H19.3346M8.66797 11.3334H10.0013M8.66797 15.3334H10.0013M8.66797 19.3334H10.0013M11.3346 4.66669H16.668C17.0216 4.66669 17.3607 4.80716 17.6108 5.05721C17.8608 5.30726 18.0013 5.6464 18.0013 6.00002C18.0013 6.35364 17.8608 6.69278 17.6108 6.94283C17.3607 7.19288 17.0216 7.33335 16.668 7.33335H11.3346C10.981 7.33335 10.6419 7.19288 10.3918 6.94283C10.1418 6.69278 10.0013 6.35364 10.0013 6.00002C10.0013 5.6464 10.1418 5.30726 10.3918 5.05721C10.6419 4.80716 10.981 4.66669 11.3346 4.66669Z" stroke="white" stroke-width="1.5" stroke-linecap="round" stroke-linejoin="round"/>
</svg>
