<svg width="38" height="38" viewBox="0 0 38 38" fill="none" xmlns="http://www.w3.org/2000/svg">
<path d="M25.373 15.7827C25.8597 16.0298 26.2977 16.333 26.687 16.6924C27.0763 17.0518 27.4132 17.4561 27.6978 17.9053C27.9823 18.3545 28.1956 18.8337 28.3379 19.3428C28.4801 19.8519 28.555 20.3835 28.5625 20.9375H27.125C27.125 20.346 27.0127 19.7882 26.7881 19.2642C26.5635 18.7401 26.2528 18.2834 25.856 17.894C25.4591 17.5047 25.0024 17.1978 24.4858 16.9731C23.9692 16.7485 23.4115 16.6325 22.8125 16.625C22.221 16.625 21.6632 16.7373 21.1392 16.9619C20.6151 17.1865 20.1584 17.4972 19.769 17.894C19.3797 18.2909 19.0728 18.7476 18.8481 19.2642C18.6235 19.7808 18.5075 20.3385 18.5 20.9375C18.5 21.6188 18.3465 22.2664 18.0396 22.8804C17.7326 23.4943 17.3021 24.0034 16.748 24.4077C17.2347 24.6548 17.6727 24.958 18.062 25.3174C18.4513 25.6768 18.7882 26.0811 19.0728 26.5303C19.3573 26.9795 19.5706 27.4587 19.7129 27.9678C19.8551 28.4769 19.93 29.0085 19.9375 29.5625H18.5C18.5 28.971 18.3877 28.4132 18.1631 27.8892C17.9385 27.3651 17.6278 26.9084 17.231 26.519C16.8341 26.1297 16.3774 25.8228 15.8608 25.5981C15.3442 25.3735 14.7865 25.2575 14.1875 25.25C13.596 25.25 13.0382 25.3623 12.5142 25.5869C11.9901 25.8115 11.5334 26.1222 11.144 26.519C10.7547 26.9159 10.4478 27.3726 10.2231 27.8892C9.99854 28.4058 9.88249 28.9635 9.875 29.5625H8.4375C8.4375 29.016 8.51237 28.4881 8.66211 27.979C8.81185 27.4699 9.02523 26.9907 9.30225 26.5415C9.57926 26.0923 9.91243 25.688 10.3018 25.3286C10.6911 24.9692 11.1328 24.6623 11.627 24.4077C11.0804 24.0034 10.6536 23.4943 10.3467 22.8804C10.0397 22.2664 9.88249 21.6188 9.875 20.9375C9.875 20.346 9.9873 19.7882 10.2119 19.2642C10.4365 18.7401 10.7472 18.2834 11.144 17.894C11.5409 17.5047 11.9976 17.1978 12.5142 16.9731C13.0308 16.7485 13.5885 16.6325 14.1875 16.625C14.8688 16.625 15.5164 16.7785 16.1304 17.0854C16.7443 17.3924 17.2534 17.8229 17.6577 18.377C17.9422 17.8154 18.3053 17.3138 18.7471 16.8721C19.1888 16.4303 19.6904 16.0672 20.252 15.7827C19.7054 15.3784 19.2786 14.8693 18.9717 14.2554C18.6647 13.6414 18.5075 12.9938 18.5 12.3125C18.5 11.721 18.6123 11.1632 18.8369 10.6392C19.0615 10.1151 19.3722 9.65837 19.769 9.26904C20.1659 8.87972 20.6226 8.57275 21.1392 8.34814C21.6558 8.12354 22.2135 8.00749 22.8125 8C23.404 8 23.9618 8.1123 24.4858 8.33691C25.0099 8.56152 25.4666 8.87223 25.856 9.26904C26.2453 9.66585 26.5522 10.1226 26.7769 10.6392C27.0015 11.1558 27.1175 11.7135 27.125 12.3125C27.125 12.9938 26.9715 13.6414 26.6646 14.2554C26.3576 14.8693 25.9271 15.3784 25.373 15.7827ZM14.1875 23.8125C14.5768 23.8125 14.9474 23.7376 15.2993 23.5879C15.6512 23.4382 15.9544 23.2323 16.209 22.9702C16.4635 22.7082 16.6694 22.4049 16.8267 22.0605C16.9839 21.7161 17.0625 21.3418 17.0625 20.9375C17.0625 20.5482 16.9876 20.1776 16.8379 19.8257C16.6882 19.4738 16.4823 19.1706 16.2202 18.916C15.9582 18.6615 15.6512 18.4556 15.2993 18.2983C14.9474 18.1411 14.5768 18.0625 14.1875 18.0625C13.7907 18.0625 13.4201 18.1374 13.0757 18.2871C12.7313 18.4368 12.4281 18.6427 12.166 18.9048C11.904 19.1668 11.6981 19.4738 11.5483 19.8257C11.3986 20.1776 11.32 20.5482 11.3125 20.9375C11.3125 21.3343 11.3874 21.7049 11.5371 22.0493C11.6868 22.3937 11.8927 22.6969 12.1548 22.959C12.4168 23.221 12.7201 23.4269 13.0645 23.5767C13.4089 23.7264 13.7832 23.805 14.1875 23.8125ZM19.9375 12.3125C19.9375 12.7093 20.0124 13.0799 20.1621 13.4243C20.3118 13.7687 20.5177 14.0719 20.7798 14.334C21.0418 14.596 21.3451 14.8019 21.6895 14.9517C22.0339 15.1014 22.4082 15.18 22.8125 15.1875C23.2018 15.1875 23.5724 15.1126 23.9243 14.9629C24.2762 14.8132 24.5794 14.6073 24.834 14.3452C25.0885 14.0832 25.2944 13.7799 25.4517 13.4355C25.6089 13.0911 25.6875 12.7168 25.6875 12.3125C25.6875 11.9232 25.6126 11.5526 25.4629 11.2007C25.3132 10.8488 25.1073 10.5456 24.8452 10.291C24.5832 10.0365 24.2762 9.83057 23.9243 9.67334C23.5724 9.51611 23.2018 9.4375 22.8125 9.4375C22.4157 9.4375 22.0451 9.51237 21.7007 9.66211C21.3563 9.81185 21.0531 10.0177 20.791 10.2798C20.529 10.5418 20.3231 10.8488 20.1733 11.2007C20.0236 11.5526 19.945 11.9232 19.9375 12.3125Z" fill="white"/>
</svg>