<svg width="18" height="18" viewBox="0 0 18 18" fill="none" xmlns="http://www.w3.org/2000/svg">
<path d="M8.99984 0.524658C7.90549 0.524658 6.82185 0.740206 5.81081 1.159C4.79976 1.57778 3.8811 2.19161 3.10728 2.96544C1.54448 4.52824 0.666504 6.64785 0.666504 8.85799C0.666504 11.0681 1.54448 13.1877 3.10728 14.7505C3.8811 15.5244 4.79976 16.1382 5.81081 16.557C6.82185 16.9758 7.90549 17.1913 8.99984 17.1913C11.21 17.1913 13.3296 16.3134 14.8924 14.7505C16.4552 13.1877 17.3332 11.0681 17.3332 8.85799C17.3332 7.76364 17.1176 6.68001 16.6988 5.66896C16.28 4.65792 15.6662 3.73926 14.8924 2.96544C14.1186 2.19161 13.1999 1.57778 12.1889 1.159C11.1778 0.740206 10.0942 0.524658 8.99984 0.524658ZM12.4998 12.358L8.1665 9.69132V4.69132H9.4165V9.02466L13.1665 11.2747L12.4998 12.358Z" fill="#A1A1A1"/>
</svg>
