<svg width="200" height="201" viewBox="0 0 200 201" fill="none" xmlns="http://www.w3.org/2000/svg">
<circle cx="100" cy="100.858" r="100" fill="#D9D9D9"/>
<circle cx="156" cy="175.858" r="25" fill="#0077FF"/>
<path d="M157 181.358C158.25 181.358 159.313 180.92 160.188 180.045C161.063 179.17 161.501 178.107 161.5 176.858C161.5 175.608 161.062 174.545 160.187 173.67C159.312 172.795 158.249 172.357 157 172.358C155.75 172.358 154.687 172.796 153.812 173.671C152.937 174.546 152.499 175.609 152.5 176.858C152.5 178.108 152.938 179.171 153.813 180.046C154.688 180.921 155.751 181.359 157 181.358ZM157 179.358C156.3 179.358 155.708 179.116 155.225 178.633C154.742 178.15 154.5 177.558 154.5 176.858C154.5 176.158 154.742 175.566 155.225 175.083C155.708 174.6 156.3 174.358 157 174.358C157.7 174.358 158.292 174.6 158.775 175.083C159.258 175.566 159.5 176.158 159.5 176.858C159.5 177.558 159.258 178.15 158.775 178.633C158.292 179.116 157.7 179.358 157 179.358ZM149 184.858C148.45 184.858 147.979 184.662 147.587 184.27C147.195 183.878 146.999 183.407 147 182.858V170.858C147 170.308 147.196 169.837 147.588 169.445C147.98 169.053 148.451 168.857 149 168.858H152.15L154 166.858H160L161.85 168.858H165C165.55 168.858 166.021 169.054 166.413 169.446C166.805 169.838 167.001 170.309 167 170.858V182.858C167 183.408 166.804 183.879 166.412 184.271C166.02 184.663 165.549 184.859 165 184.858H149Z" fill="white"/>
</svg>
